<?xml version="1.0" encoding="UTF-8"?>
<svg width="13px" height="13px" viewBox="0 0 13 13" version="1.1" xmlns="http://www.w3.org/2000/svg" xmlns:xlink="http://www.w3.org/1999/xlink">
    <!-- Generator: Sketch 63.1 (92452) - https://sketch.com -->
    <title>close-icon-grey</title>
    <desc>Created with Sketch.</desc>
    <g id="YoYo-Front-End" stroke="none" stroke-width="1" fill="none" fill-rule="evenodd">
        <g id="Owner---Listings" transform="translate(-409.000000, -230.000000)" fill="#B8BFC7" fill-rule="nonzero">
            <path d="M416.931797,236.5 L421.792317,231.638952 C421.926016,231.505139 421.999789,231.326615 422,231.136253 C422,230.945785 421.926228,230.76705 421.792317,230.633448 L421.366382,230.207591 C421.232472,230.07346 421.053959,230 420.863398,230 C420.673154,230 420.494642,230.07346 420.360732,230.207591 L415.500211,235.068322 L410.63948,230.207591 C410.50578,230.07346 410.327163,230 410.136707,230 C409.946463,230 409.767846,230.07346 409.634146,230.207591 L409.208,230.633448 C408.930667,230.910799 408.930667,231.361918 409.208,231.638952 L414.068626,236.5 L409.208,241.360836 C409.074195,241.494861 409.000528,241.673385 409.000528,241.863747 C409.000528,242.054109 409.074195,242.232633 409.208,242.366552 L409.634041,242.792409 C409.76774,242.926434 409.946463,243 410.136602,243 C410.327057,243 410.505675,242.926434 410.639374,242.792409 L415.500106,237.931573 L420.360626,242.792409 C420.494537,242.926434 420.673049,243 420.863293,243 L420.863504,243 C421.053854,243 421.232366,242.926434 421.366276,242.792409 L421.792211,242.366552 C421.925911,242.232739 421.999683,242.054109 421.999683,241.863747 C421.999683,241.673385 421.925911,241.494861 421.792211,241.360942 L416.931797,236.5 Z" id="close-icon-grey"></path>
        </g>
    </g>
</svg>