<?xml version="1.0" encoding="UTF-8"?>
<svg width="21px" height="21px" viewBox="0 0 21 21" version="1.1" xmlns="http://www.w3.org/2000/svg" xmlns:xlink="http://www.w3.org/1999/xlink">
    <!-- Generator: Sketch 63.1 (92452) - https://sketch.com -->
    <title>close-icon</title>
    <desc>Created with Sketch.</desc>
    <g id="YoYo-Front-End" stroke="none" stroke-width="1" fill="none" fill-rule="evenodd">
        <g id="Reset-PW" transform="translate(-35.000000, -35.000000)" fill="#27292C" fill-rule="nonzero">
            <g id="close-icon" transform="translate(45.500000, 45.500000) scale(-1, 1) translate(-45.500000, -45.500000) translate(35.000000, 35.000000)">
                <path d="M12.8129024,10.5 L20.6645122,2.64753805 C20.8804878,2.43137765 20.9996585,2.14299304 21,1.83548523 C21,1.52780669 20.8808293,1.23908059 20.6645122,1.02326168 L19.9764634,0.335338884 C19.7601463,0.118666255 19.4717805,0 19.1639512,0 C18.8566341,0 18.5682683,0.118666255 18.3519512,0.335338884 L10.5003415,8.1872886 L2.64839024,0.335338884 C2.43241463,0.118666255 2.14387805,0 1.83621951,0 C1.52890244,0 1.24036585,0.118666255 1.02439024,0.335338884 L0.336,1.02326168 C-0.112,1.47129082 -0.112,2.20002114 0.336,2.64753805 L8.18778049,10.5 L0.336,18.3521205 C0.119853659,18.5686223 0.000853658537,18.857007 0.000853658537,19.1645148 C0.000853658537,19.4720226 0.119853659,19.7604072 0.336,19.9767383 L1.02421951,20.6646611 C1.24019512,20.881163 1.52890244,21 1.83604878,21 C2.14370732,21 2.4322439,20.881163 2.64821951,20.6646611 L10.5001707,12.8125407 L18.3517805,20.6646611 C18.5680976,20.881163 18.8564634,21 19.1637805,21 L19.164122,21 C19.4716098,21 19.7599756,20.881163 19.9762927,20.6646611 L20.6643415,19.9767383 C20.8803171,19.7605779 20.9994878,19.4720226 20.9994878,19.1645148 C20.9994878,18.857007 20.8803171,18.5686223 20.6643415,18.3522912 L12.8129024,10.5 Z" id="Path"></path>
            </g>
        </g>
    </g>
</svg>