<?xml version="1.0" encoding="UTF-8"?>
<svg width="24px" height="19px" viewBox="0 0 24 19" version="1.1" xmlns="http://www.w3.org/2000/svg" xmlns:xlink="http://www.w3.org/1999/xlink">
    <!-- Generator: Sketch 63.1 (92452) - https://sketch.com -->
    <title>Eye-Off</title>
    <desc>Created with Sketch.</desc>
    <g id="YoYo-Front-End" stroke="none" stroke-width="1" fill="none" fill-rule="evenodd">
        <g id="Signup" transform="translate(-471.000000, -350.000000)" fill="#9BA1B3" fill-rule="nonzero">
            <g id="Left" transform="translate(165.000000, 43.000000)">
                <g id="Password" transform="translate(0.000000, 263.000000)">
                    <g id="Eye-Off" transform="translate(306.000000, 44.000000)">
                        <path d="M20.8066528,18.9506504 C20.5948706,18.9509883 20.39172,18.8676672 20.2423285,18.7191948 L2.67891892,1.34776623 C2.38071706,1.03731962 2.38704648,0.548359893 2.69318652,0.245566189 C2.99932656,-0.0572275148 3.49369004,-0.0634877446 3.80756757,0.231454545 L21.3709771,17.6028831 C21.5991438,17.8287037 21.6673738,18.1681999 21.5438706,18.4631603 C21.4203675,18.7581208 21.1294349,18.9506504 20.8066528,18.9506504 Z" id="Path"></path>
                        <path d="M12.0079834,15.7922078 C9.93779626,15.7922078 7.9414553,15.1861818 6.07434511,13.9909091 C4.37438669,12.9051948 2.84407484,11.3501558 1.64856549,9.5 L1.64856549,9.49605195 C2.64349272,8.0861039 3.73322245,6.89379221 4.90378378,5.93244156 C4.9251924,5.91473932 4.93812932,5.88898001 4.9394566,5.86141174 C4.94078389,5.83384347 4.93038027,5.80698485 4.91076923,5.78735065 L3.91683992,4.80576623 C3.88021446,4.76924177 3.82136772,4.7666645 3.78162162,4.79984416 C2.53821206,5.83620779 1.38411642,7.10748052 0.334802495,8.5958961 C-0.0344260104,9.12004858 -0.0470399014,9.81285712 0.302869023,10.3498182 C1.6206237,12.3894805 3.31659044,14.1073766 5.20665281,15.316961 C7.33471933,16.6805195 9.62494802,17.3714286 12.0079834,17.3714286 C13.294283,17.3674775 14.5714735,17.157828 15.790104,16.7505974 C15.8227894,16.7396319 15.8474255,16.7127398 15.8552458,16.6794903 C15.863066,16.6462409 15.85296,16.6113551 15.8285239,16.5872468 L14.7517672,15.5222597 C14.7013374,15.473603 14.6287076,15.4548469 14.5606653,15.4729091 C13.7267718,15.6852943 12.8690805,15.7925774 12.0079834,15.7922078 Z" id="Path"></path>
                        <path d="M23.7425364,8.61662338 C22.4222869,6.59719481 20.7093555,4.88176623 18.7893555,3.6554026 C16.6652807,2.29727273 14.3201663,1.57922078 12.0079834,1.57922078 C10.7353193,1.5814541 9.47210893,1.79549917 8.27126819,2.21238961 C8.23874185,2.22358435 8.21435034,2.25057603 8.20673978,2.28379683 C8.19912922,2.31701763 8.20937533,2.35177192 8.23384615,2.37574026 L9.30910603,3.43924675 C9.36005629,3.48878307 9.43389132,3.50760471 9.5027027,3.4885974 C10.3194843,3.27006188 11.1618445,3.1590523 12.0079834,3.15844156 C14.0382536,3.15844156 16.0286071,3.77187013 17.9231601,4.98441558 C19.655052,6.08987013 21.2033264,7.64342857 22.4018295,9.47532468 C22.4036611,9.47764501 22.4036611,9.48090045 22.4018295,9.48322078 C21.5318504,10.8378589 20.4522647,12.0490255 19.2024948,13.0724935 C19.1808558,13.0901297 19.1677166,13.1159563 19.1662928,13.1436533 C19.1648689,13.1713502 19.1752916,13.1983618 19.1950104,13.2180779 L20.1879418,14.1996623 C20.2243697,14.2360351 20.2828687,14.2388209 20.3226611,14.2060779 C21.6568867,13.0949528 22.8118098,11.7888976 23.747526,10.333039 C24.0852787,9.80913848 24.0833294,9.13859422 23.7425364,8.61662338 Z" id="Path"></path>
                        <path d="M12.024948,4.73766165 C11.6661558,4.7374707 11.3084806,4.77720104 10.9586694,4.8561039 C10.92267,4.86349729 10.8936971,4.88987073 10.8832661,4.92474205 C10.8728351,4.95961337 10.882636,4.99733295 10.9087734,5.02290909 L16.5265696,10.5778182 C16.5524284,10.6036699 16.5905649,10.6133636 16.6258216,10.6030467 C16.6610783,10.5927297 16.6877432,10.5640735 16.6952183,10.5284675 C17.0192174,9.12292784 16.678558,7.64794866 15.7696511,6.52096838 C14.8607443,5.39398811 13.4824884,4.73766165 12.024948,4.73766165 Z" id="Path"></path>
                        <path d="M7.5233264,8.37283117 C7.49746761,8.34697949 7.45933117,8.33728572 7.42407447,8.34760268 C7.38881777,8.35791964 7.36215286,8.38657583 7.35467775,8.42218182 C6.98684688,10.0115803 7.47119991,11.6763762 8.63688258,12.8293171 C9.80256525,13.982258 11.4857597,14.4613167 13.0927235,14.0975065 C13.128723,14.0901131 13.1576959,14.0637397 13.1681268,14.0288683 C13.1785578,13.993997 13.1687569,13.9562774 13.1426195,13.9307013 L7.5233264,8.37283117 Z" id="Path"></path>
                    </g>
                </g>
            </g>
        </g>
    </g>
</svg>