<?xml version="1.0" encoding="UTF-8"?>
<svg width="18px" height="18px" viewBox="0 0 18 18" version="1.1" xmlns="http://www.w3.org/2000/svg" xmlns:xlink="http://www.w3.org/1999/xlink">
    <!-- Generator: Sketch 63.1 (92452) - https://sketch.com -->
    <title>Google Icon</title>
    <desc>Created with Sketch.</desc>
    <g id="YoYo-Front-End" stroke="none" stroke-width="1" fill="none" fill-rule="evenodd">
        <g id="Login" transform="translate(-258.000000, -458.000000)" fill-rule="nonzero">
            <g id="Login-with-Google" transform="translate(165.000000, 443.000000)">
                <g id="Google-Icon" transform="translate(93.000000, 15.000000)">
                    <path d="M18,9.73993823 C18,9.04018188 17.9374521,8.52954358 17.8020873,8 L9,8 L9,11.1583562 L14.1666268,11.1583562 C14.0625,11.9432515 13.5,13.1252883 12.2499761,13.919571 L12.232454,14.0253103 L15.0155113,15.9825289 L15.2083254,16 C16.9791268,14.5153483 18,12.3309403 18,9.73993823" id="Path" fill="#4285F4"></path>
                    <path d="M9.04001418,18 C11.4699771,18 13.5099518,17.2243388 15,15.8864318 L12.1599878,13.7534135 C11.4000039,14.2672682 10.3799821,14.6259906 9.04001418,14.6259906 C6.66003211,14.6259906 4.64004964,13.1038766 3.91998148,11 L3.81443583,11.008689 L1.03633087,13.0931825 L1,13.1911009 C2.47998306,16.0414972 5.51998739,18 9.04001418,18" id="Path" fill="#34A853"></path>
                    <path d="M4,10.7744739 C3.80412573,10.2230143 3.69076598,9.63211134 3.69076598,9.02158859 C3.69076598,8.41099796 3.80412573,7.82016293 3.98969457,7.26870333 L3.98450632,7.15125594 L1.08455784,5 L0.9896768,5.0431093 C0.360832252,6.24453496 0,7.59368635 0,9.02158859 C0,10.4494908 0.360832252,11.7985743 0.9896768,13 L4,10.7744739" id="Path" fill="#FBBC05"></path>
                    <path d="M9.00571714,3.37394252 C10.6884794,3.37394252 11.8235923,4.08169579 12.4708455,4.67315 L15,2.26870047 C13.4467021,0.862885515 11.4253143,0 9.00571714,0 C5.50070606,0 2.47366976,1.95843598 1,4.80883224 L3.89757193,7 C4.62452194,4.89612336 6.63588758,3.37394252 9.00571714,3.37394252" id="Path" fill="#EB4335"></path>
                </g>
            </g>
        </g>
    </g>
</svg>