<?xml version="1.0" encoding="UTF-8"?>
<svg width="9px" height="10px" viewBox="0 0 9 10" version="1.1" xmlns="http://www.w3.org/2000/svg" xmlns:xlink="http://www.w3.org/1999/xlink">
    <!-- Generator: Sketch 63.1 (92452) - https://sketch.com -->
    <title>user-icon</title>
    <desc>Created with Sketch.</desc>
    <g id="YoYo-Front-End" stroke="none" stroke-width="1" fill="none" fill-rule="evenodd">
        <g id="Home---Search" transform="translate(-372.000000, -409.000000)" fill="#99A2AA" fill-rule="nonzero">
            <g id="user-icon" transform="translate(372.000000, 409.000000)">
                <path d="M4.5,5 C5.18688628,5 5.78167565,4.75363491 6.26765917,4.26755678 C6.75364269,3.78155787 7,3.18690805 7,2.49992081 C7,1.81317115 6.75364269,1.21844213 6.26757999,0.732284843 C5.78151726,0.246365111 5.1868071,0 4.5,0 C3.81303453,0 3.21840354,0.246365111 2.73242001,0.732364029 C2.24643649,1.21836295 2,1.81309197 2,2.49992081 C2,3.18690805 2.24643649,3.78163705 2.7324992,4.26763597 C3.21856193,4.7535557 3.81327208,5 4.5,5 Z" id="Path"></path>
                <path d="M8.9781901,7.7652745 C8.96362274,7.57681523 8.93415879,7.37123672 8.8907859,7.15414698 C8.8470015,6.9354339 8.79062494,6.72867474 8.72313772,6.53969895 C8.65342833,6.34437722 8.55861698,6.15149057 8.44141962,5.96664699 C8.31977797,5.77479339 8.17690254,5.60773318 8.01657919,5.47026271 C7.848931,5.32644628 7.64367101,5.21081759 7.40631346,5.12647581 C7.16977889,5.04257674 6.90764857,5.00007379 6.6272473,5.00007379 C6.51712786,5.00007379 6.41062971,5.04058443 6.20495821,5.16064049 C6.07837849,5.23465171 5.93031806,5.32024793 5.76505661,5.41492031 C5.62374491,5.49564641 5.43231158,5.571281 5.19585933,5.63975798 C4.96516817,5.70668536 4.73093807,5.7406287 4.49975309,5.7406287 C4.26856814,5.7406287 4.03442033,5.70668536 3.80348228,5.63975798 C3.56727692,5.57135479 3.37584358,5.4957202 3.2346965,5.4149941 C3.07099877,5.3212072 2.92285604,5.23561098 2.79438338,5.16056671 C2.58895879,5.04051064 2.48237832,5 2.37225891,5 C2.09177534,5 1.82972731,5.04257674 1.59327506,5.12654959 C1.35608208,5.2107438 1.15073981,5.3263725 0.982927014,5.47033649 C0.822685957,5.60788077 0.679728228,5.77486719 0.55825119,5.96664699 C0.441136127,6.15149057 0.34632478,6.34430343 0.276533095,6.53977273 C0.209128148,6.72874852 0.152751614,6.9354339 0.108967208,7.15414698 C0.0655943032,7.37094156 0.0361303709,7.57659387 0.0215630078,7.76549588 C0.00724253343,7.95056081 0,8.14263579 0,8.33662929 C0,8.84149941 0.179005803,9.25022137 0.531997001,9.55165289 C0.880626224,9.84909977 1.34192622,10 1.90289335,10 L7.09710665,10 C7.65807378,10 8.11920918,9.84917355 8.4679207,9.55165289 C8.82099422,9.25044275 9,8.841647 9,8.33655549 C9,8.14167651 8.99259287,7.94945396 8.9781901,7.7652745 L8.9781901,7.7652745 Z" id="Path"></path>
            </g>
        </g>
    </g>
</svg>